<?xml version="1.0" encoding="utf-8"?>
<!-- Generator: Adobe Illustrator 15.1.0, SVG Export Plug-In . SVG Version: 6.00 Build 0)  -->
<!DOCTYPE svg PUBLIC "-//W3C//DTD SVG 1.1//EN" "http://www.w3.org/Graphics/SVG/1.1/DTD/svg11.dtd">
<svg version="1.1" id="Layer_1" xmlns="http://www.w3.org/2000/svg" xmlns:xlink="http://www.w3.org/1999/xlink" x="0px" y="0px"
	 width="69.333px" height="68.333px" viewBox="0 0 69.333 68.333" enable-background="new 0 0 69.333 68.333" xml:space="preserve">
<g>
	<path fill="#FFFFFF" d="M66.484,61.509c0,1.578-1.279,2.857-2.857,2.857H6.714c-1.578,0-2.857-1.279-2.857-2.857V5.589
		c0-1.578,1.279-2.857,2.857-2.857h56.913c1.578,0,2.857,1.279,2.857,2.857V61.509z"/>
	<g>
		<linearGradient id="SVGID_1_" gradientUnits="userSpaceOnUse" x1="35.1704" y1="3.0479" x2="35.1704" y2="64.6821">
			<stop  offset="0" style="stop-color:#4D69A2"/>
			<stop  offset="1" style="stop-color:#3C5A99"/>
		</linearGradient>
		<path fill="url(#SVGID_1_)" d="M66.484,61.509V5.589c0-1.578-1.279-2.857-2.857-2.857h-5.096h-46.72H6.714
			c-1.574,0-2.849,1.272-2.855,2.843v50.837l-0.001,5.102c0.002,1.574,1.281,2.852,2.857,2.852H38.32V39.622h-8.158v-8.525h8.158
			v-9.259c0-5.548,5.031-9.276,9.09-9.276h9.133v7.756H52.33c-2.076,0-4.844,1.686-4.844,3.758v7.02h8.229v8.525h-8.229v24.745
			h11.045h5.096C65.205,64.366,66.484,63.087,66.484,61.509z"/>
		<path fill="#3D568E" d="M63.627,64.723H47.129V39.265h8.229v-7.811h-8.229v-7.377c0-2.216,2.859-4.115,5.201-4.115h3.855v-7.042
			H47.41c-3.648,0-8.732,3.393-8.732,8.919v9.616h-8.159v7.811h8.159v25.458H6.714c-1.769,0-3.211-1.439-3.214-3.208L3.501,5.575
			C3.509,3.81,4.95,2.375,6.714,2.375h56.913c1.771,0,3.215,1.442,3.215,3.214v55.92C66.842,63.28,65.398,64.723,63.627,64.723z
			 M47.844,64.009h15.783c1.379,0,2.5-1.122,2.5-2.5V5.589c0-1.378-1.121-2.5-2.5-2.5H6.714c-1.371,0-2.492,1.116-2.499,2.487
			L4.214,61.515c0.002,1.375,1.124,2.494,2.5,2.494h31.249v-24.03h-8.158v-9.239h8.158v-8.902c0-5.513,4.988-9.633,9.447-9.633h9.49
			v8.471h-4.57c-1.979,0-4.486,1.602-4.486,3.401v6.663h8.227v9.239h-8.227V64.009z"/>
	</g>
</g>
</svg>
