<?xml version="1.0" encoding="utf-8"?>
<!-- Generator: Adobe Illustrator 23.0.1, SVG Export Plug-In . SVG Version: 6.00 Build 0)  -->
<svg version="1.1" id="Layer_1" xmlns="http://www.w3.org/2000/svg" xmlns:xlink="http://www.w3.org/1999/xlink" x="0px" y="0px"
	 viewBox="0 0 286.29 111.43" style="enable-background:new 0 0 286.29 111.43;" xml:space="preserve">
<style type="text/css">
	.st0{fill:#D1D2D2;}
	.st1{fill:url(#SVGID_1_);}
	.st2{opacity:0.04;fill:#FFFFFF;}
	.st3{opacity:0.11;fill:#FFFFFF;}
	.st4{opacity:0.13;fill:#FFFFFF;}
	.st5{opacity:0.31;fill:#FFFFFF;}
	.st6{fill:url(#SVGID_2_);}
	.st7{fill:url(#SVGID_3_);}
	.st8{opacity:0.16;}
	.st9{fill:#000101;}
	.st10{fill:#FFFFFF;}
</style>
<path class="st0" d="M251.37,44.33c0,7.01-5.68,12.7-12.7,12.7c-7.01,0-12.7-5.69-12.7-12.7c0-7.01,5.68-12.7,12.7-12.7
	C245.68,31.63,251.37,37.31,251.37,44.33z"/>
<linearGradient id="SVGID_1_" gradientUnits="userSpaceOnUse" x1="227.3111" y1="44.2966" x2="249.5832" y2="44.2966">
	<stop  offset="0" style="stop-color:#585858"/>
	<stop  offset="0.0265" style="stop-color:#535353"/>
	<stop  offset="0.2191" style="stop-color:#2F2F2F"/>
	<stop  offset="0.3997" style="stop-color:#151515"/>
	<stop  offset="0.5622" style="stop-color:#050505"/>
	<stop  offset="0.6909" style="stop-color:#000000"/>
</linearGradient>
<path class="st1" d="M238.45,33.64c-6.15,0-11.14,4.77-11.14,10.66c0,5.88,4.99,10.66,11.14,10.66c6.15,0,11.14-4.77,11.14-10.66
	C249.58,38.41,244.6,33.64,238.45,33.64z M243.65,44.11c-1.68,0-3.04-1.43-3.04-3.2c0-1.77,1.36-3.2,3.04-3.2s3.04,1.43,3.04,3.2
	C246.7,42.68,245.33,44.11,243.65,44.11z"/>
<path class="st2" d="M230.11,49.03c0-6.89,5.59-12.48,12.48-12.48c1.54,0,3.01,0.28,4.37,0.79c-2.04-2.32-5.1-3.79-8.51-3.79
	c-6.15,0-11.14,4.77-11.14,10.65c0,2.84,1.16,5.41,3.05,7.32C230.19,50.72,230.11,49.88,230.11,49.03z"/>
<path class="st3" d="M240.37,50.66c-5.91,0-10.7-4.79-10.7-10.7c0-0.88,0.11-1.74,0.31-2.56c-1.66,1.86-2.67,4.28-2.67,6.92
	c0,5.88,4.99,10.66,11.14,10.66c5.72,0,10.43-4.12,11.06-9.44C247.63,48.61,244.24,50.66,240.37,50.66z"/>
<path class="st4" d="M238.45,33.69c-1.65,0-3.21,0.34-4.62,0.96c0.09,0,0.17-0.01,0.26-0.01c6.26,0,11.34,5.18,11.34,11.57
	c0,3.21-1.28,6.11-3.34,8.2c4.36-1.44,7.5-5.41,7.5-10.07C249.58,38.46,244.6,33.69,238.45,33.69z"/>
<path class="st5" d="M244.72,43.79c0,3.37-2.73,6.1-6.1,6.1c-3.37,0-6.1-2.73-6.1-6.1c0-3.37,2.73-6.1,6.1-6.1
	C241.99,37.69,244.72,40.42,244.72,43.79z"/>
<linearGradient id="SVGID_2_" gradientUnits="userSpaceOnUse" x1="108.5016" y1="70.0366" x2="108.5016" y2="39.7182">
	<stop  offset="0" style="stop-color:#585858"/>
	<stop  offset="0.0265" style="stop-color:#535353"/>
	<stop  offset="0.2191" style="stop-color:#2F2F2F"/>
	<stop  offset="0.3997" style="stop-color:#151515"/>
	<stop  offset="0.5622" style="stop-color:#050505"/>
	<stop  offset="0.6909" style="stop-color:#000000"/>
</linearGradient>
<path class="st6" d="M19.81,67.4c-0.82-0.52-1.3-1.3-1.3-2.2c0-1.21,0.95-2.33,2.29-2.33c0.56,0,1.12,0.17,1.64,0.47
	c2.25,1.34,4.32,2.12,6.78,2.12c3.63,0,5.7-1.68,5.7-4.23c0-2.12-1.21-3.54-5.31-4.06l-1.51-0.22c-5.92-0.78-8.9-3.54-8.9-8.42
	c0-5.31,3.89-8.81,9.89-8.81c3.2,0,6.26,0.86,7.99,1.99c0.91,0.52,1.29,1.25,1.29,2.07c0,1.3-0.95,2.25-2.25,2.25
	c-0.52,0-1.12-0.17-1.6-0.39c-1.68-0.82-3.46-1.34-5.48-1.34c-3.11,0-4.67,1.69-4.67,3.93c0,2.12,1.47,3.41,5.36,3.97l1.47,0.22
	c6,0.82,8.9,3.58,8.9,8.59c0,5.23-3.76,9.03-11.14,9.03C25,70.04,21.8,68.7,19.81,67.4z M44,51.08c0-1.6,0.99-2.55,2.42-2.55
	s2.2,0.91,2.42,2.16h0.04c0.91-1.29,2.72-2.42,5.48-2.42c2.46,0,4.45,0.99,5.7,2.76h0.04c1.6-1.73,3.67-2.76,6.65-2.76
	c4.84,0,7.56,3.28,7.56,7.73v11.23c0,1.6-0.99,2.55-2.42,2.55c-1.42,0-2.42-0.95-2.42-2.55V57.12c0-2.68-1.34-4.54-3.93-4.54
	c-2.5,0-3.97,1.86-3.97,4.54v10.11c0,1.6-0.99,2.55-2.42,2.55c-1.43,0-2.42-0.95-2.42-2.55V57.12c0-2.68-1.34-4.54-3.93-4.54
	c-2.5,0-3.97,1.86-3.97,4.54v10.11c0,1.6-0.99,2.55-2.42,2.55S44,68.83,44,67.23V51.08z M81.75,39.8c1.6,0,2.89,1.3,2.89,2.89
	c0,1.6-1.3,2.89-2.89,2.89c-1.6,0-2.89-1.3-2.89-2.89C78.85,41.1,80.15,39.8,81.75,39.8z M79.33,67.23V51.08
	c0-1.6,0.99-2.55,2.42-2.55c1.43,0,2.42,0.95,2.42,2.55v16.15c0,1.6-0.99,2.55-2.42,2.55C80.32,69.78,79.33,68.83,79.33,67.23z
	 M95,69.82c-4.23,0-5.7-2.12-5.7-6.09V42.52c0-1.6,0.99-2.55,2.42-2.55c1.38,0,2.42,0.95,2.42,2.55v20.82
	c0,1.47,0.48,1.99,1.68,2.16c1.42,0.17,2.03,1.04,2.03,2.12c0,1.25-0.78,2.2-2.5,2.2H95z M100.49,64.25
	c-0.43-1.34-0.73-2.94-0.73-5.1c0-2.16,0.26-3.8,0.69-5.14c1.17-3.63,4.36-5.74,8.51-5.74c4.28,0,7.39,2.2,8.55,5.74
	c0.43,1.38,0.69,3.02,0.69,5.01c0,0.99-0.6,1.68-1.68,1.68H104.9c-0.17,0-0.26,0.08-0.26,0.26c0,0.6,0.13,1.12,0.3,1.6
	c0.69,2.03,2.33,3.15,4.71,3.15c1.77,0,2.94-0.52,4.28-1.42c0.56-0.39,1.12-0.69,1.77-0.69c1.25,0,2.03,0.86,2.03,2.03
	c0,0.82-0.35,1.38-0.99,1.9c-1.86,1.51-4.15,2.5-7.52,2.5C104.77,70.04,101.66,67.88,100.49,64.25z M113.06,55.05
	c-0.56-1.68-2.12-2.68-4.06-2.68c-1.99,0-3.54,0.99-4.1,2.68c-0.17,0.52-0.26,1.04-0.26,1.77c0,0.17,0.09,0.26,0.26,0.26h8.16
	c0.17,0,0.26-0.09,0.26-0.26C113.32,56.09,113.23,55.57,113.06,55.05z M121.95,43.73c0-2.33,1.38-3.8,3.54-3.8
	c1.81,0,3.02,1.08,4.19,3.11l8.98,16.02h0.17V43c0-1.94,1.17-3.07,2.89-3.07c1.73,0,2.89,1.12,2.89,3.07v23.02
	c0,2.33-1.38,3.8-3.54,3.8c-1.81,0-3.02-1.08-4.19-3.11l-8.98-15.98h-0.17v16.02c0,1.94-1.17,3.07-2.89,3.07
	c-1.73,0-2.89-1.12-2.89-3.07V43.73z M148.73,64.03c-0.48-1.51-0.69-2.89-0.69-4.92c0-2.03,0.22-3.41,0.69-4.92
	c1.25-3.84,4.49-6,9.07-6c4.58,0,7.82,2.16,9.07,6c0.47,1.51,0.69,2.89,0.69,4.92c0,2.03-0.22,3.41-0.69,4.92
	c-1.25,3.84-4.49,6-9.07,6C153.22,70.04,149.98,67.88,148.73,64.03z M161.04,62.61c0.3-0.91,0.39-2.07,0.39-3.5s-0.09-2.59-0.39-3.5
	c-0.47-1.47-1.55-2.33-3.24-2.33c-1.69,0-2.76,0.86-3.24,2.33c-0.3,0.91-0.39,2.07-0.39,3.5s0.09,2.59,0.39,3.5
	c0.48,1.47,1.55,2.33,3.24,2.33C159.49,64.94,160.57,64.08,161.04,62.61z M186.65,67.01l-2.98-10.02h-0.09l-3.02,10.02
	c-0.6,1.9-1.68,2.81-3.33,2.81c-1.69,0-2.76-0.91-3.41-2.81l-4.88-14.47c-0.13-0.43-0.22-0.87-0.22-1.25c0-1.68,1.25-2.89,2.94-2.89
	c1.43,0,2.42,0.86,2.89,2.55l3.02,10.58h0.09l2.98-10.54c0.52-1.73,1.51-2.59,2.98-2.59c1.42,0,2.42,0.86,2.94,2.59l3.15,10.54h0.09
	l2.89-10.58c0.48-1.68,1.47-2.55,2.89-2.55c1.68,0,2.89,1.21,2.89,2.89c0,0.39-0.09,0.82-0.22,1.25l-4.88,14.47
	c-0.65,1.9-1.68,2.81-3.33,2.81C188.38,69.82,187.21,68.96,186.65,67.01z"/>
<linearGradient id="SVGID_3_" gradientUnits="userSpaceOnUse" x1="208.8716" y1="55.7308" x2="269.9661" y2="55.7308">
	<stop  offset="0" style="stop-color:#7FD0DE"/>
	<stop  offset="0.4727" style="stop-color:#F2749B"/>
	<stop  offset="1" style="stop-color:#FCF6B5"/>
</linearGradient>
<path class="st7" d="M208.87,46.09c0,0,4.16-4.02,6.09-1.7c1.93,2.33,7.23,16.53,23.66,16.53s27.18-18.68,27.18-18.68
	s2.18-3.3,3.23-2.01c4.84,5.95-9.78,31.29-30.08,31.28C225.19,71.87,212.09,60.1,208.87,46.09z"/>
<g class="st8">
	<path class="st9" d="M269.03,40.24c-0.19-0.22-0.55,0.07-0.79,0.17c-1.49,4.46-11.72,25.5-29.57,25.5
		c-22.48,0-28.76-17.64-29.58-19.95c-0.15,0.05-0.22,0.14-0.22,0.14c3.22,14,16.31,25.42,30.08,25.42
		C259.15,71.53,274.18,46.18,269.03,40.24z"/>
	<path class="st10" d="M238.96,71.46C238.96,71.46,238.96,71.46,238.96,71.46h-0.01c-13.72,0-27.07-11.1-30.38-25.48l-0.03-0.04
		l0.08-0.07c0.02-0.03,0.14-0.16,0.37-0.23l0.28-0.08l0.1,0.28c1.65,4.64,8.65,19.76,29.3,19.76c17.29,0,27.5-19.95,29.28-25.29
		l0.04-0.13l0.12-0.05c0.04-0.02,0.09-0.05,0.14-0.07c0.17-0.09,0.38-0.21,0.59-0.21c0.16,0,0.31,0.06,0.41,0.19
		c1.7,1.97,1.42,5.66-0.77,10.45C264.61,58.99,253.54,71.46,238.96,71.46z M209.94,48.78c4.21,12.78,16.5,22.43,29.06,22.44
		l0.05,0.31v-0.31c13.98,0,25.12-12.44,28.94-20.8c2.06-4.5,2.35-8.23,0.84-9.98c-0.01,0.02-0.18,0.11-0.26,0.16
		c-0.02,0.01-0.04,0.02-0.06,0.03c-1.92,5.6-12.3,25.59-29.82,25.59C220.75,66.21,212.91,55.02,209.94,48.78z"/>
</g>
</svg>
